<svg xmlns="http://www.w3.org/2000/svg" id="Icon_Saved_Cards" data-name="Icon_Saved Cards" width="126.641" height="116.509" viewBox="0 0 126.641 116.509">
  <path id="Path_84" data-name="Path 84" d="M119.042,60.787V48.123A20.322,20.322,0,0,0,98.78,27.861H20.262a7.678,7.678,0,0,1-7.6-7.852,7.789,7.789,0,0,1,7.852-7.345H98.78a7.3,7.3,0,0,1,6.585,4.052,6.438,6.438,0,0,0,5.825,3.546,6.332,6.332,0,0,0,5.572-9.371A19.924,19.924,0,0,0,98.78,0H20.262A20.322,20.322,0,0,0,0,20.262H0V96.247a20.322,20.322,0,0,0,20.262,20.262H98.78a20.322,20.322,0,0,0,20.262-20.262V83.583H106.378V96.247a7.62,7.62,0,0,1-7.6,7.6H20.262a7.62,7.62,0,0,1-7.6-7.6V39.005a18.506,18.506,0,0,0,7.6,1.52H98.78a7.62,7.62,0,0,1,7.6,7.6V60.787Z"/>
  <g id="Group_330" data-name="Group 330" transform="translate(68.386 53.189)">
    <path id="Path_85" data-name="Path 85" d="M72.591,33.664V46.328H39.664V33.664H72.591M74.364,21H37.891A10.81,10.81,0,0,0,27,31.891V48.1A10.81,10.81,0,0,0,37.891,58.992H74.364A10.81,10.81,0,0,0,85.255,48.1V31.891A10.81,10.81,0,0,0,74.364,21Z" transform="translate(-27 -21)"/>
  </g>
</svg>